<?xml version="1.0" standalone="no"?>
<!DOCTYPE svg PUBLIC "-//W3C//DTD SVG 20010904//EN"
 "http://www.w3.org/TR/2001/REC-SVG-20010904/DTD/svg10.dtd">
<svg version="1.0" xmlns="http://www.w3.org/2000/svg"
 width="377.000000pt" height="377.000000pt" viewBox="0 0 377.000000 377.000000"
 preserveAspectRatio="xMidYMid meet">
<metadata>
Created by potrace 1.11, written by Peter Selinger 2001-2013
</metadata>
<g transform="translate(0.000000,377.000000) scale(0.100000,-0.100000)"
fill="#000000" stroke="none">
<path d="M892 2280 c-167 -278 -307 -512 -312 -520 -23 -37 -185 -308 -200
-335 -10 -16 -27 -47 -40 -67 l-22 -38 172 1 c95 0 174 -2 176 -3 1 -2 -96
-105 -216 -228 l-218 -225 20 -22 21 -23 95 98 c52 53 160 165 241 247 l146
150 130 5 c72 3 168 3 214 0 l84 -5 -102 -105 c-57 -58 -156 -159 -222 -226
l-118 -121 22 -22 23 -21 210 217 c299 309 255 277 387 283 62 3 158 4 214 2
l101 -3 -85 -87 c-47 -48 -142 -145 -212 -217 -70 -71 -131 -136 -135 -143 -5
-8 -1 -21 10 -33 18 -20 22 -17 264 231 l245 251 167 -3 167 -3 -219 -225
-218 -225 20 -22 21 -23 91 94 c50 51 160 164 244 250 l152 156 211 -2 211 -3
-220 -225 -220 -225 21 -23 21 -23 129 133 c70 73 180 186 244 251 l115 117
209 0 c115 0 209 -2 209 -5 0 -4 -41 -47 -306 -316 -68 -70 -124 -131 -124
-136 0 -5 8 -17 18 -26 17 -16 31 -3 261 233 l243 250 149 0 149 0 0 45 c0 40
-3 45 -22 46 -13 0 -109 1 -215 1 l-192 1 59 36 c169 104 299 289 327 467 8
50 8 189 1 231 -29 157 -134 325 -270 428 -242 185 -587 216 -861 79 -93 -47
-137 -80 -220 -168 -246 -259 -244 -655 5 -917 46 -48 135 -118 181 -142 26
-14 14 -15 -139 -13 l-168 1 -45 75 c-26 41 -137 228 -249 415 -112 187 -208
347 -213 355 -5 8 -78 130 -162 270 l-152 256 -303 -506z m2053 336 c103 -33
192 -86 271 -161 102 -97 157 -196 179 -320 11 -65 12 -164 1 -210 -14 -62
-23 -87 -58 -155 -112 -218 -344 -352 -613 -353 -211 0 -379 71 -523 223 -206
217 -210 551 -10 774 105 118 223 182 423 230 11 3 72 3 135 1 88 -3 134 -9
195 -29z m-1543 -351 c102 -170 242 -405 311 -522 70 -116 135 -226 146 -245
11 -18 27 -45 35 -59 l15 -26 -710 0 c-390 0 -712 4 -715 9 -3 4 0 8 5 8 6 0
11 4 11 9 0 5 47 87 104 183 58 95 132 220 167 278 349 591 423 709 434 692 7
-9 95 -156 197 -327z"/>
</g>
</svg>
